HIERARCHY
ROOT joint_0
{
	OFFSET 0.000000 0.000000 0.000000
	CHANNELS 6 Xposition Yposition Zposition Zrotation Yrotation Xrotation 
	JOINT joint_1
	{
		OFFSET 14.113007 -2.961990 123.953979
		CHANNELS 3 Zrotation Yrotation Xrotation
		JOINT joint_2
		{
			OFFSET 0.764000 -2.434006 113.871948
			CHANNELS 3 Zrotation Yrotation Xrotation
			JOINT joint_3
			{
				OFFSET 0.186996 -2.169998 113.753052
				CHANNELS 3 Zrotation Yrotation Xrotation
				JOINT joint_4
				{
					OFFSET 16.096001 -2.720001 160.853027
					CHANNELS 3 Zrotation Yrotation Xrotation
					JOINT joint_5
					{
						OFFSET 34.392006 -0.188995 92.567017
						CHANNELS 3 Zrotation Yrotation Xrotation
						End Site
						{
							OFFSET 0.000000 0.000000 0.000000
						}
					}
				}
				JOINT joint_6
				{
					OFFSET 9.183998 -36.684006 89.597046
					CHANNELS 3 Zrotation Yrotation Xrotation
					JOINT joint_7
					{
						OFFSET 0.486000 -164.365997 -28.984009
						CHANNELS 3 Zrotation Yrotation Xrotation
						JOINT joint_8
						{
							OFFSET 38.899002 -34.967010 -291.651978
							CHANNELS 3 Zrotation Yrotation Xrotation
							JOINT joint_9
							{
								OFFSET 41.714005 -45.890991 -258.857056
								CHANNELS 3 Zrotation Yrotation Xrotation
								End Site
								{
									OFFSET 0.000000 0.000000 0.000000
								}
							}
						}
					}
				}
				JOINT joint_10
				{
					OFFSET 8.867004 33.650002 90.817993
					CHANNELS 3 Zrotation Yrotation Xrotation
					JOINT joint_11
					{
						OFFSET 0.018997 164.299999 -29.368042
						CHANNELS 3 Zrotation Yrotation Xrotation
						JOINT joint_12
						{
							OFFSET 29.440994 30.887997 -293.216919
							CHANNELS 3 Zrotation Yrotation Xrotation
							JOINT joint_13
							{
								OFFSET 46.174011 54.490005 -256.422058
								CHANNELS 3 Zrotation Yrotation Xrotation
								End Site
								{
									OFFSET 0.000000 0.000000 0.000000
								}
							}
						}
					}
				}
			}
		}
	}
	JOINT joint_14
	{
		OFFSET -2.264000 -89.466995 -116.150024
		CHANNELS 3 Zrotation Yrotation Xrotation
		JOINT joint_15
		{
			OFFSET -16.400993 -17.452988 -493.781982
			CHANNELS 3 Zrotation Yrotation Xrotation
			JOINT joint_16
			{
				OFFSET -50.497004 -13.404022 -424.754013
				CHANNELS 3 Zrotation Yrotation Xrotation
				JOINT joint_17
				{
					OFFSET 198.546007 -19.341003 -89.309000
					CHANNELS 3 Zrotation Yrotation Xrotation
					End Site
					{
						OFFSET 0.000000 0.000000 0.000000
					}
				}
			}
		}
	}
	JOINT joint_18
	{
		OFFSET -0.867996 96.016006 -110.817993
		CHANNELS 3 Zrotation Yrotation Xrotation
		JOINT joint_19
		{
			OFFSET -10.130997 24.658998 -493.645020
			CHANNELS 3 Zrotation Yrotation Xrotation
			JOINT joint_20
			{
				OFFSET -48.871004 19.434999 -424.714005
				CHANNELS 3 Zrotation Yrotation Xrotation
				JOINT joint_21
				{
					OFFSET 195.579996 24.926001 -94.327003
					CHANNELS 3 Zrotation Yrotation Xrotation
					End Site
					{
						OFFSET 0.000000 0.000000 0.000000
					}
				}
			}
		}
	}
}
MOTION
Frames: 10
Frame Time: 0.016667
-2851.625977 927.622742 1142.076050 9.770233 -5.475988 -1.382779 -0.658903 0.202899 1.986595 -0.654851 -0.028913 -0.492607 -0.654503 0.062837 0.294738 -0.498679 -0.658166 1.308005 0.000000 0.000000 0.000000 0.316846 1.397223 0.097820 -0.121481 1.475956 0.104616 0.023648 -0.702546 -0.648411 0.000000 0.000000 0.000000 1.848255 -0.814151 -1.126453 0.330999 -1.080703 1.019424 0.764686 2.264739 1.647917 0.000000 0.000000 0.000000 2.474967 0.515944 3.725945 2.433275 4.978188 0.922813 2.820742 -2.747137 0.984723 0.000000 0.000000 0.000000 -4.304090 0.572726 -0.813890 -4.092707 4.627918 -1.286360 -4.427428 -3.494348 -1.672129 0.000000 0.000000 0.000000 
-2851.511475 927.559753 1142.051025 9.771399 -5.472048 -1.382104 -0.660042 0.193789 1.989830 -0.655570 -0.028185 -0.493785 -0.655251 0.061795 0.295075 -0.498750 -0.678701 1.307668 0.000000 0.000000 0.000000 0.328001 1.391376 0.112460 -0.123451 1.472271 0.077824 0.028379 -0.708428 -0.626125 0.000000 0.000000 0.000000 1.843700 -0.813957 -1.135763 0.330533 -1.079858 1.038301 0.758957 2.255524 1.624766 0.000000 0.000000 0.000000 2.474415 0.514939 3.731103 2.433058 4.979343 0.918961 2.819424 -2.730222 0.985789 0.000000 0.000000 0.000000 -4.305409 0.571763 -0.811085 -4.093912 4.629390 -1.283572 -4.427392 -3.478767 -1.674140 0.000000 0.000000 0.000000 
-2851.406738 927.513245 1142.026978 9.772082 -5.465563 -1.380528 -0.661703 0.182876 1.993633 -0.656704 -0.026368 -0.494125 -0.656442 0.059783 0.295343 -0.497617 -0.697677 1.304206 0.000000 0.000000 0.000000 0.341231 1.384246 0.124318 -0.125591 1.467704 0.050199 0.032528 -0.712320 -0.605181 0.000000 0.000000 0.000000 1.840331 -0.813375 -1.146612 0.330127 -1.078851 1.057962 0.753136 2.245619 1.601913 0.000000 0.000000 0.000000 2.473977 0.512521 3.732687 2.432773 4.976844 0.917870 2.818069 -2.712142 0.986955 0.000000 0.000000 0.000000 -4.307122 0.566578 -0.811245 -4.095230 4.633103 -1.278733 -4.427423 -3.464520 -1.676007 0.000000 0.000000 0.000000 
-2851.307373 927.473938 1142.005005 9.772650 -5.457887 -1.378424 -0.663333 0.172028 1.997890 -0.657809 -0.025244 -0.494173 -0.657577 0.058786 0.294961 -0.496030 -0.718199 1.299512 0.000000 0.000000 0.000000 0.354385 1.376104 0.135938 -0.127883 1.462132 0.020950 0.036483 -0.715748 -0.584893 0.000000 0.000000 0.000000 1.836301 -0.813035 -1.158420 0.329749 -1.077975 1.079524 0.746998 2.234399 1.578782 0.000000 0.000000 0.000000 2.473645 0.509969 3.732577 2.432575 4.971307 0.917954 2.816669 -2.692718 0.988234 0.000000 0.000000 0.000000 -4.308956 0.559632 -0.812959 -4.096593 4.637137 -1.272842 -4.427369 -3.449755 -1.677897 0.000000 0.000000 0.000000 
-2851.210938 927.422913 1141.980957 9.774296 -5.449796 -1.376717 -0.665312 0.162258 2.001321 -0.659325 -0.024592 -0.494619 -0.659126 0.057511 0.295692 -0.494578 -0.738236 1.295194 0.000000 0.000000 0.000000 0.368334 1.367732 0.148763 -0.130415 1.456502 -0.009691 0.040034 -0.719619 -0.567567 0.000000 0.000000 0.000000 1.832510 -0.813186 -1.170630 0.329798 -1.077548 1.103933 0.741313 2.224109 1.557248 0.000000 0.000000 0.000000 2.472932 0.507149 3.734600 2.432203 4.965363 0.915885 2.814843 -2.674615 0.989196 0.000000 0.000000 0.000000 -4.311075 0.552353 -0.812279 -4.098203 4.639866 -1.269510 -4.427688 -3.433402 -1.680169 0.000000 0.000000 0.000000 
-2851.111816 927.350037 1141.957031 9.777309 -5.440904 -1.376245 -0.667955 0.150832 2.004824 -0.661394 -0.022541 -0.496501 -0.661250 0.055876 0.296403 -0.494235 -0.756107 1.293827 0.000000 0.000000 0.000000 0.384060 1.359274 0.166664 -0.133446 1.451152 -0.042794 0.042788 -0.723700 -0.555354 0.000000 0.000000 0.000000 1.828511 -0.813969 -1.182313 0.330622 -1.077561 1.132562 0.736584 2.215858 1.538939 0.000000 0.000000 0.000000 2.471627 0.503938 3.740901 2.431598 4.958816 0.910719 2.812412 -2.658052 0.989739 0.000000 0.000000 0.000000 -4.313555 0.544973 -0.805907 -4.100109 4.639834 -1.271922 -4.428603 -3.413315 -1.683202 0.000000 0.000000 0.000000 
-2851.015869 927.266418 1141.932007 9.781245 -5.431881 -1.375951 -0.670467 0.141094 2.007081 -0.663446 -0.021855 -0.497220 -0.663329 0.054929 0.296113 -0.494569 -0.773631 1.294255 0.000000 0.000000 0.000000 0.398921 1.350366 0.187261 -0.136790 1.445233 -0.078004 0.045033 -0.727746 -0.546218 0.000000 0.000000 0.000000 1.823029 -0.815686 -1.194252 0.331955 -1.078138 1.164636 0.732390 2.208816 1.522356 0.000000 0.000000 0.000000 2.469880 0.500830 3.748981 2.430743 4.951698 0.903741 2.809519 -2.642830 0.989948 0.000000 0.000000 0.000000 -4.316294 0.537637 -0.797437 -4.102271 4.638256 -1.277087 -4.429870 -3.390913 -1.686697 0.000000 0.000000 0.000000 
-2850.927490 927.185547 1141.904053 9.785157 -5.421217 -1.375195 -0.673659 0.129917 2.009406 -0.666068 -0.019501 -0.499226 -0.666007 0.053461 0.297794 -0.494835 -0.792347 1.294484 0.000000 0.000000 0.000000 0.415561 1.341642 0.207101 -0.140342 1.439840 -0.116163 0.048193 -0.734655 -0.534664 0.000000 0.000000 0.000000 1.820514 -0.817252 -1.208993 0.333536 -1.079073 1.200784 0.727944 2.201132 1.505076 0.000000 0.000000 0.000000 2.468128 0.494453 3.756239 2.429667 4.947007 0.897317 2.806719 -2.628824 0.990076 0.000000 0.000000 0.000000 -4.318795 0.528649 -0.790334 -4.104165 4.636269 -1.280922 -4.430883 -3.371386 -1.689704 0.000000 0.000000 0.000000 
-2850.849609 927.119080 1141.871948 9.788579 -5.408838 -1.373633 -0.677000 0.119803 2.013057 -0.668904 -0.019225 -0.500885 -0.668851 0.053444 0.298411 -0.495161 -0.812534 1.294849 0.000000 0.000000 0.000000 0.432279 1.332810 0.224870 -0.143932 1.434355 -0.157213 0.052757 -0.744734 -0.518023 0.000000 0.000000 0.000000 1.819543 -0.818831 -1.225011 0.335173 -1.080311 1.239668 0.723070 2.192803 1.486045 0.000000 0.000000 0.000000 2.466204 0.483882 3.761434 2.428031 4.946560 0.892162 2.803991 -2.618014 0.989923 0.000000 0.000000 0.000000 -4.321203 0.518695 -0.787343 -4.106129 4.632932 -1.280289 -4.431732 -3.357481 -1.691915 0.000000 0.000000 0.000000 
-2850.780762 927.056091 1141.837036 9.792055 -5.395270 -1.371521 -0.680300 0.109764 2.016566 -0.671692 -0.018596 -0.502486 -0.671652 0.053369 0.299212 -0.495966 -0.833698 1.296454 0.000000 0.000000 0.000000 0.448364 1.324179 0.242939 -0.147779 1.428989 -0.201861 0.058219 -0.757633 -0.499006 0.000000 0.000000 0.000000 1.818731 -0.820520 -1.243117 0.337085 -1.081648 1.282624 0.717937 2.183820 1.466289 0.000000 0.000000 0.000000 2.464087 0.470597 3.765723 2.426007 4.948180 0.887453 2.801158 -2.608488 0.989596 0.000000 0.000000 0.000000 -4.323454 0.507484 -0.785993 -4.107940 4.629148 -1.278193 -4.432412 -3.346321 -1.693694 0.000000 0.000000 0.000000 
